PathFileType	4	(X/Y/Z)	Formatted/subject02/trials/walk2/markers.trc
DataRate	CameraRate	NumFrames	NumMarkers	Units	OrigDataRate	OrigDataStartFrame	OrigNumFrames
200.00000000000426	200.00000000000426	4	64	m	200.00000000000426	176	235
Frame#	Time	CLAV			C7			RACR			RASH			RPSH			RLEL			RMEL			RUA1			RUA2			RUA3			RFAsuperior			RFAradius			RFAulna			RASI			RPSI			RCAL			RTOE			RMT5			RTH1			RTH2			RTH3			RTB1			RTB2			RTB3			RLFC			RMFC			RLMAL			RMMAL			RHJC			RKJC			REJC			RAJC			RSJC			LACR			LASH			LPSH			LLEL			LMEL			LUA1			LUA2			LUA3			LFAsuperior			LFAradius			LFAulna			LASI			LPSI			LCAL			LTOE			LMT5			LTH1			LTH2			LTH3			LTB1			LTB2			LTB3			LLFC			LMFC			LLMAL			LMMAL			LHJC			LKJC			LEJC			LAJC			LSJC			
		X1	Y1	Z1	X2	Y2	Z2	X3	Y3	Z3	X4	Y4	Z4	X5	Y5	Z5	X6	Y6	Z6	X7	Y7	Z7	X8	Y8	Z8	X9	Y9	Z9	X10	Y10	Z10	X11	Y11	Z11	X12	Y12	Z12	X13	Y13	Z13	X14	Y14	Z14	X15	Y15	Z15	X16	Y16	Z16	X17	Y17	Z17	X18	Y18	Z18	X19	Y19	Z19	X20	Y20	Z20	X21	Y21	Z21	X22	Y22	Z22	X23	Y23	Z23	X24	Y24	Z24	X25	Y25	Z25	X26	Y26	Z26	X27	Y27	Z27	X28	Y28	Z28	X29	Y29	Z29	X30	Y30	Z30	X31	Y31	Z31	X32	Y32	Z32	X33	Y33	Z33	X34	Y34	Z34	X35	Y35	Z35	X36	Y36	Z36	X37	Y37	Z37	X38	Y38	Z38	X39	Y39	Z39	X40	Y40	Z40	X41	Y41	Z41	X42	Y42	Z42	X43	Y43	Z43	X44	Y44	Z44	X45	Y45	Z45	X46	Y46	Z46	X47	Y47	Z47	X48	Y48	Z48	X49	Y49	Z49	X50	Y50	Z50	X51	Y51	Z51	X52	Y52	Z52	X53	Y53	Z53	X54	Y54	Z54	X55	Y55	Z55	X56	Y56	Z56	X57	Y57	Z57	X58	Y58	Z58	X59	Y59	Z59	X60	Y60	Z60	X61	Y61	Z61	X62	Y62	Z62	X63	Y63	Z63	X64	Y64	Z64	

177	3.96	2.055848062474671	1.479107634836646	-0.472239369346325	1.933807146039751	1.56993531154834	-0.5128131498124829	1.986366131082922	1.530175708498114	-0.336715370956483	2.035805082453321	1.47825600242574	-0.3047904866998793	1.937658719762304	1.501932704151666	-0.3128005667690693	1.855583689612934	1.181238364546332	-0.2335168230606414	1.846439336934814	1.17744264759852	-0.3071684839423977	1.961570947776983	1.417644825692717	-0.2664030290012742	1.959168187436964	1.32456539984307	-0.2789929253873172	1.887127312461731	1.314567205609336	-0.2565453044589253	1.918989701689382	1.089990455944928	-0.2629999154568471	1.981550229711288	0.9283609828355195	-0.2091915364296821	1.913169883788143	0.9228934351464653	-0.1799095615857864	2.030135452193098	1.057494075230365	-0.3786216448538736	1.851989519449768	1.081617492835895	-0.4755697875669064	1.700445479599639	0.3013701994191778	-0.3977530884572615	1.811709937208455	0.09995040853918125	-0.4404252111530121	1.754541810003007	0.1296979145226024	-0.3430026323654102	1.982828495187067	0.8991783097113609	-0.3268325373753624	2.062723097937364	0.8105378846374485	-0.3241161061411982	2.025456306976244	0.6796044578076952	-0.3403442707554957	2.013857081654517	0.413657231256004	-0.4004720424274228	1.953567584403342	0.3826396491690789	-0.3307215578797637	1.885540958947064	0.3095993116680679	-0.3992410177963055	2.105592142497811	0.5624029594756437	-0.3322142617113657	2.112392551348981	0.5514870454105824	-0.4475697496069189	1.754247568936689	0.2428865291355382	-0.342699653229159	1.760071241450091	0.2399726141443941	-0.4472291002504081	1.963081847112643	0.9497971213471271	-0.4356686836565207	2.116423441178363	0.549007677581772	-0.3919580431777158	1.854901554099824	1.170142295664359	-0.2685406170470597	1.738397842192739	0.2427425611951457	-0.4029652072938405	1.989828418850714	1.48934735334925	-0.3085428087082913	2.01384954460459	1.523816174351531	-0.6827489863321028	2.067291918705858	1.47411830215825	-0.7028246534446275	1.96129384699956	1.49968914002225	-0.7114755399193528	1.934621535030672	1.164006758622847	-0.7925320945303458	1.900783475773572	1.156216075173515	-0.7243016440547343	2.000925118356047	1.426044422851339	-0.7538355005675503	2.013793850480559	1.353365303229562	-0.7454575727778568	1.922097945257494	1.325574744268366	-0.7499262424858557	1.987615876105784	1.088058324040887	-0.7346246069499657	2.08271501421036	0.9233979604800296	-0.781630940943532	2.023873513090182	0.9051362198711775	-0.8211359312031696	2.046126626231191	1.069544805516041	-0.6402284270565283	1.856813028056462	1.090664665083622	-0.5574639958355893	1.907426003025418	0.05205653208855146	-0.5445649489866986	2.139909979391832	0.043965733732921	-0.5191859257712433	2.076191446838481	0.01145999524484605	-0.6090219665699482	1.998722283045704	0.8414831960295331	-0.6861780238465376	2.062671250132161	0.7261893983179204	-0.6596737431314833	2.000159130518311	0.6113107755424934	-0.6377766493172965	2.059131123802278	0.3813523084731236	-0.5638805487838092	2.027446006749698	0.2966665304399869	-0.6179087047451949	2.029388045084434	0.1832075798667016	-0.550820957537589	2.018099593413199	0.5355787155577213	-0.6323032563491521	2.020967632080331	0.5418763905237544	-0.5164395218492404	1.985578937961548	0.06372384920955443	-0.6035567610469634	1.996270480070316	0.06949044725602455	-0.4995315303046384	1.971514211206421	0.9569954991038301	-0.5959173377379161	2.022023512406108	0.5380749377855237	-0.5723999527904897	1.925398204098417	1.154147042904595	-0.7603800468341425	1.977230026945606	0.0544191954101727	-0.5425084959293506	2.021315255103251	1.48520965308176	-0.7065769754530395	
178	3.965	2.061512454293313	1.479700310967301	-0.4721695266423517	1.939580616949095	1.570603012346288	-0.512902924810209	1.991850321851546	1.530764978161629	-0.3367367826511404	2.041213627151939	1.478810378843581	-0.3047516654000624	1.943091869813094	1.502540266487753	-0.3129045339714167	1.858993565191073	1.182480761741966	-0.2344539463444142	1.850065280053601	1.178850266076423	-0.308140437843314	1.966443499070126	1.418323555366146	-0.2666332053630721	1.963546406113617	1.325278839992016	-0.2793747146187094	1.891377185109025	1.315660963776926	-0.2571745516197819	1.921701812742309	1.090708011579506	-0.263929338391579	1.982710227437489	0.9284674680306979	-0.2101778057352513	1.914217156734268	0.9235679184452641	-0.1810591945636475	2.036163756284055	1.058634708097845	-0.3790723066692697	1.857684796337666	1.082320941465365	-0.4755144043796745	1.715441496432802	0.2977409647104098	-0.398281236466601	1.83107833706692	0.09878368633531211	-0.4408810511401439	1.773258259911238	0.1273032664546473	-0.3434760206459943	1.989518822511313	0.900265079932466	-0.3268499000173257	2.070624145174916	0.8127275190367618	-0.3242511363448523	2.035153633660672	0.6813114808371832	-0.3406034148868683	2.027436098899348	0.4151244060026499	-0.4009631954649169	1.967669686152765	0.3831151304161148	-0.3312105886621444	1.900752541855857	0.3090846868817196	-0.3997599744342454	2.116894221687986	0.5652132680718406	-0.3326208304233336	2.123805351326834	0.5545111286482394	-0.4479897683005318	1.770538880318044	0.2402926537855044	-0.3432132322454233	1.776356213157143	0.2375577802454767	-0.4477478698639959	1.969042486349276	0.9507204894972988	-0.4356270678511601	2.12789164061367	0.5520446248732739	-0.3923825537006805	1.858360692730767	1.171442333771108	-0.2694968740057263	1.754663957330124	0.2399533445849396	-0.4034713707890494	1.995248489926557	1.489926644710494	-0.3085708766823133	2.019858258266307	1.524491813516589	-0.682729914904383	2.073305454903942	1.474772092425995	-0.7027385322075348	1.96733395697799	1.500400371081701	-0.7115436302645974	1.941545479599816	1.16465691918734	-0.7933044511714469	1.907479641730822	1.156700740656102	-0.725206570966098	2.007227447141059	1.426757289676912	-0.7539775653352897	2.020200438655833	1.354089378620294	-0.7456634470198367	1.928572433587488	1.326136927404743	-0.7505000128727876	1.994985194608221	1.089239607691038	-0.7352258206364448	2.091795509452294	0.9254783396629531	-0.7818786540484328	2.03327424669998	0.9066674691287666	-0.8216010738535711	2.051309415250838	1.070025522947021	-0.6407589601185726	1.862238062102525	1.091161320363951	-0.5574466592047267	1.907500620146348	0.05217758839612914	-0.5445105206107449	2.140017414182053	0.04401604571459931	-0.5194568818140252	2.076167495012243	0.01158162868108928	-0.6092253900198493	2.003057470164964	0.8416870924323414	-0.6861054508108767	2.065692443470117	0.7257062475992241	-0.6594612989333518	2.001886810865158	0.6115249014310344	-0.6376482931339795	2.0596394825351	0.3813525378865207	-0.5638433486374441	2.027777051356451	0.2967387030907523	-0.6178799447630462	2.029635626649918	0.1832425960008223	-0.5508527101730227	2.018986742695961	0.5356022077343767	-0.6321256069914336	2.021718800813793	0.5418971664112089	-0.5162584387264857	1.985602312255619	0.06384701608666415	-0.603601430070743	1.996416832528181	0.06954513558675579	-0.4995851383558192	1.976957126579463	0.9575132072764926	-0.5959198312456312	2.022740229232881	0.5381309152622008	-0.5722411519179272	1.932226180288066	1.154731604822608	-0.7612002957754731	1.977307968138936	0.05452249507439955	-0.5425487582625848	2.02734031767856	1.485888358292908	-0.7065577434897857	
179	3.97	2.067180328101402	1.480231226939673	-0.4721071441116563	1.945355239409778	1.571212293692739	-0.5129847303929839	1.997357053722774	1.531295312912409	-0.3367571882350227	2.046647213843649	1.479304562909893	-0.3047180550463989	1.948549933173489	1.503090485159209	-0.313001141710157	1.862373135704973	1.183705373241817	-0.2353952186723802	1.853664089391578	1.180239188198377	-0.3091158526715987	1.971326867758732	1.418953354311919	-0.2668640600882744	1.967918645863934	1.32594683638784	-0.2797570780405161	1.89562145276289	1.316724783810071	-0.2578067510169677	1.924385225267794	1.091419195493354	-0.2648582365824405	1.983841707589735	0.9285841674465631	-0.2111653297097667	1.91523834583284	0.9242482328557378	-0.1822174754898721	2.042170699997186	1.059737644230554	-0.3794958884330071	1.863369349028012	1.082964374075766	-0.475451351632162	1.730522754089893	0.2938420821345154	-0.39886481247351	1.850645276786181	0.09753930417804479	-0.4413668200512617	1.792158427519807	0.1247701597184361	-0.3439910699516131	1.996156955281548	0.9012941608730158	-0.3268401818674007	2.078423329921701	0.8148436850830747	-0.3243481257242671	2.044708116870769	0.6829849857922861	-0.3408495537516407	2.040939140809593	0.4165259875720424	-0.4014513749061392	1.981722347310857	0.3834923517922062	-0.3317075992208134	1.915992960091264	0.3084439908071909	-0.400299291353932	2.127991257738026	0.567978689367503	-0.3330066829115261	2.135034704690832	0.557502740156909	-0.4483883784754242	1.786930677610249	0.2375007116581438	-0.3437709453217415	1.792757959936366	0.2349489403901004	-0.4483096587286627	1.974999887811603	0.9515972304762139	-0.4355576166398141	2.139162926638669	0.5550506275513623	-0.3927852554869775	1.861789119188319	1.172723777021806	-0.2704568453868341	1.771043950274093	0.2369548364923117	-0.4040244554784019	2.000693542713713	1.490447078187585	-0.3085982669940364	2.02584475666512	1.525105693357233	-0.6827126536552381	2.079292642696388	1.47536244402765	-0.7026608587137384	1.973347579572615	1.501051240056911	-0.7116065923105972	1.948471024620982	1.165233207990852	-0.7940469355675717	1.914185016267198	1.157112415239691	-0.7260791069185959	2.013505723565147	1.427403551264354	-0.7541153933794001	2.026591343061729	1.354749035313013	-0.7458609252678128	1.935035262062876	1.326625652187343	-0.7510553997080679	2.002368416773991	1.090370039608662	-0.7357882792775736	2.100915607034944	0.9275410729601647	-0.782066305851703	2.042723984413871	0.9081668459932205	-0.8220016544255541	2.056499551791693	1.070450651495133	-0.6412571570033629	1.867660829768174	1.091592299210426	-0.557420376329549	1.90757596627587	0.05230324048719086	-0.544453741609496	2.140124228813376	0.04405121596969254	-0.5197239056478242	2.076140994750696	0.01169473360737641	-0.6094255915841066	2.007409247797698	0.8418496935500991	-0.6860077158488349	2.068729187590896	0.7251988147612434	-0.6592300284961197	2.003644348940906	0.6117245705446537	-0.6375066433022528	2.060170490463722	0.3813456287742733	-0.563799024654688	2.028125330973872	0.296806879395518	-0.6178450872961727	2.029892533911548	0.1832727190907493	-0.5508798557118304	2.019905873952087	0.5356211979802581	-0.6319386420774635	2.022502480764564	0.5419114094430069	-0.5160681013828793	1.985627284848948	0.06396929971742821	-0.6036429733385681	1.996564758305944	0.06959660535284512	-0.4996356829097227	1.982414422448301	0.9579732149102368	-0.5958914060918672	2.023490329009089	0.538181972222167	-0.5720733667014347	1.939059900624588	1.155243401099902	-0.7619896040816919	1.977386685199077	0.05462454144670914	-0.5425861180181278	2.033338971566451	1.486504959305342	-0.7065410706613759	
180	3.975	2.072852377078936	1.480697370331149	-0.4720517333951871	1.951132194168086	1.571760413660677	-0.5130590865668925	2.002886401494458	1.531764370096462	-0.3367765883297593	2.052105580023215	1.479736153451462	-0.3046891894987656	1.954032729297664	1.50358125886313	-0.3130905581539467	1.865732526042819	1.18490679776181	-0.2363397824054316	1.857244778809248	1.181604010966255	-0.31009372162208	1.976223646409931	1.419531232931301	-0.267095319264309	1.97228990867771	1.326566641600645	-0.2801401930061719	1.899866005420002	1.317753844898269	-0.2584408821489548	1.927049036769426	1.092117777151507	-0.2657860149285494	1.984951158149433	0.9287031971532795	-0.2121551722982691	1.916239517559159	0.9249270978688537	-0.1833862418585246	2.048152458008195	1.060797351051479	-0.3798899262036938	1.869041746397841	1.083544449878411	-0.4753822163995991	1.745695850990691	0.2896845613814326	-0.3994973889254331	1.870400194321729	0.09623306879867868	-0.4418762576263101	1.811237822424921	0.1221153971563214	-0.3445408243639599	2.002743429398316	0.9022604612485002	-0.3268050885440588	2.086122412287919	0.8168797861305032	-0.3244098780622982	2.054120362337755	0.6846164632613492	-0.3410835554991468	2.054364750897093	0.4178590519045629	-0.4019358279227372	1.995726168924614	0.3837714931931345	-0.3322106601760494	1.931261303700147	0.3076820692355838	-0.4008554689665486	2.138885192737763	0.5706887675342619	-0.3333735576619632	2.146079651133931	0.5604513483250303	-0.4487673458152268	1.803424921242801	0.2345222470051237	-0.3443667510470315	1.809276360367069	0.2321574927650744	-0.4489085128183267	1.980951507292747	0.952423160199168	-0.4354619645522317	2.150237355135398	0.5580148856880731	-0.3931679534483946	1.865196679485282	1.173981353252333	-0.2714197158351276	1.787539245592752	0.233759112652666	-0.4046181784695444	2.006163353100831	1.490906393081558	-0.3086248106452852	2.03181105488558	1.525654254878456	-0.6826972086771349	2.085255462418634	1.475885556936842	-0.7025911843675212	1.979336783635039	1.501638270781443	-0.7116646625151167	1.955400077231256	1.165732070732858	-0.7947596117172858	1.920900905673208	1.157447687144106	-0.7269195090835018	2.019762208539316	1.427979532142195	-0.7542489457356856	2.032968573752385	1.35534061107126	-0.7460497120490687	1.941488385404979	1.327037392745587	-0.7515928324107976	2.009765111611212	1.091445214594905	-0.7363116474014679	2.11007174862471	0.9295812549655167	-0.7821931684734611	2.052219634864803	0.909630796912725	-0.8223375309238674	2.061700073781946	1.070820266715709	-0.6417201183328606	1.87308205533623	1.091956012874683	-0.5573864871454292	1.907651981002125	0.05243255927011853	-0.5443961351092458	2.14022999331716	0.04407107056220324	-0.5199848918243174	2.076113033735402	0.01179890835112352	-0.6096214451494372	2.011781380118421	0.8419701687339295	-0.6858858164776578	2.07178592882896	0.7246665326064523	-0.6589800891369891	2.005436674567165	0.6119085181604658	-0.6373525043433783	2.060727418845785	0.3813299793700658	-0.5637470578197644	2.028494356865663	0.296869694037203	-0.6178040573404394	2.030159988256693	0.1832967093253977	-0.5509020871213369	2.020862469577528	0.5356344052199782	-0.6317428971874596	2.023322626978473	0.5419179399730016	-0.5158690168493517	1.985654977606348	0.06408982189912332	-0.6036816925346572	1.996713490208789	0.06964403877208269	-0.4996832726878303	1.987887757181629	0.9583747742817109	-0.595833468469631	2.024278686460735	0.5382267781503526	-0.5718970300142793	1.945900975125797	1.155678936533525	-0.7627480583255836	1.977466079023599	0.0547246300405691	-0.5426210121191662	2.03931323549625	1.487055796566938	-0.7065268055140408	
